<svg xmlns="http://www.w3.org/2000/svg" viewBox="0 0 233.003 233.003"><g fill="#000002"><path d="M58.24 201.255H47.904a5 5 0 100 10H58.24a5 5 0 100-10z"/><path d="M210.503 3.755H42.513c-12.407 0-22.5 10.094-22.5 22.5v45.007H15.5c-8.547 0-15.5 6.953-15.5 15.5v126.986c0 8.547 6.953 15.5 15.5 15.5h75.145c8.547 0 15.5-6.953 15.5-15.5v-11.167h76.696a7.5 7.5 0 007.5-7.5 7.5 7.5 0 00-7.5-7.5h-22.167v-14.334h49.829c12.407 0 22.5-10.094 22.5-22.5V26.255c0-12.406-10.093-22.5-22.5-22.5zM15.5 86.262h75.145c.257 0 .5.243.5.5v98.779H15V86.762c0-.257.243-.5.5-.5zm75.145 127.986H15.5a.527.527 0 01-.5-.5v-18.207h76.145v18.207c0 .257-.244.5-.5.5zm55.029-26.667h-38.333v-14.334h38.333v14.334zm72.329-36.834c0 4.136-3.364 7.5-7.5 7.5H106.145V86.762c0-8.547-6.953-15.5-15.5-15.5H35.013V26.255c0-4.136 3.364-7.5 7.5-7.5h167.99c4.136 0 7.5 3.364 7.5 7.5v124.492z"/></g></svg>