<svg version="1.0" xmlns="http://www.w3.org/2000/svg" width="346.667" height="346.667" viewBox="0 0 260 260"><path d="M42.5 79.3c7.7 21.8 22.6 63.1 24.2 67.2.8 2.2 3.7 10.1 6.3 17.5 2.6 7.4 6.1 17 7.6 21.2l2.9 7.8h35.4l2.1-5.8c1.2-3.1 3.7-9.8 5.6-14.7 4.9-13.2 7.8-21.1 10.9-29 1.5-3.9 2.8-7.5 2.9-8 .1-.6.9-2.6 1.7-4.5.8-1.9 2.4-6.1 3.4-9.2 1.1-3.2 2.2-5.5 2.6-5 .3.4 1.8 4.1 3.2 8.2 3.1 8.9 12.9 36.2 19.7 54.5l4.8 13h35.5l3.4-9.5c2-5.2 3.9-10.4 4.3-11.5.5-1.1 4.1-11 8-22 4-11 9.7-26.8 12.7-35 3-8.3 7.7-21.3 10.4-29 2.7-7.7 5.4-15 5.9-16.2l.9-2.2h-32.6l-4.1 11.2c-4.3 11.9-10.4 29-19.8 55.2-3.1 8.8-6 16.3-6.3 16.8-.4.4-1.7-2.1-2.8-5.5-1.2-3.5-4.5-12.8-7.3-20.8s-8.2-23.3-12-34c-3.7-10.7-7.1-20.3-7.5-21.2-.6-1.5-2.5-1.7-16-1.6-13.3 0-15.5.2-16 1.7-.4.9-5.4 14.6-11.1 30.6-5.8 15.9-10.9 29.9-11.4 31-.4 1.1-2.3 6.2-4.1 11.2-1.7 5.1-3.6 9-4 8.7-.5-.3-.9-1-.9-1.6 0-.5-1.8-6.2-4.1-12.6-2.2-6.5-5.6-16.2-7.5-21.7-2-5.5-3.8-10.7-4.1-11.5-.3-.8-.7-2-.9-2.5-.1-.6-2.8-8.1-5.8-16.9-3.1-8.7-5.6-16-5.6-16.2 0-.2-7.8-.3-17.4-.3l-17.5.1 4.4 12.1zm-35-2.4C.8 80.9-1 88.8 3.3 95.1c2.9 4.4 6 5.9 12.3 5.9 8.8 0 14.4-5.3 14.4-13.6 0-4.7-2.5-8.6-7-10.9-4-2.1-11.8-1.9-15.5.4zm-3.6 35.5c-.1.1-.1 76.6 0 78.8.1 1.6 1.3 1.8 11.6 1.8 11.2 0 11.5-.1 11.6-2.3.1-2.1 0-75-.1-77.4 0-.8-3.4-1.1-11.5-1.1-6.3.1-11.5.2-11.6.2z"/></svg>